<svg width="652" height="290" viewBox="0 0 652 290" fill="none" xmlns="http://www.w3.org/2000/svg">
<path d="M13 48H113L123 68L83 148L93 168L123 228L113 248H13L3 228L43 148L3 68L13 48Z" fill="white"/>
<path d="M113 48H13L3 68M113 48L123 68L83 148M113 48L73 128M3 68H83L63 108L53 88M3 68L53 168L13 248M3 68L73 208H53H93L33 88M53 88L93 168M53 88L123 228M73 88H33M33 88L73 168M123 228L113 248H13M123 228H43L63 188M13 248L3 228L43 148" stroke="#0C1117" stroke-width="5" stroke-linecap="round" stroke-linejoin="round"/>
<path d="M185.76 136H154.8V129.76L164.88 127.48V58.96L154.8 56.56V50.32H185.76V56.56L175.68 58.96V127.48L185.76 129.76V136ZM270.224 136H257.624L211.784 64.84H211.304C211.384 66.28 211.464 67.88 211.544 69.64C211.704 71.4 211.824 73.32 211.904 75.4C211.984 77.4 212.064 79.48 212.144 81.64C212.224 83.8 212.264 85.96 212.264 88.12V136H202.304V50.32H214.784L260.504 121.24H260.984C260.904 120.28 260.824 118.96 260.744 117.28C260.664 115.52 260.584 113.6 260.504 111.52C260.424 109.36 260.344 107.16 260.264 104.92C260.184 102.68 260.144 100.6 260.144 98.68V50.32H270.224V136ZM304.276 136H293.476V50.32H341.356V59.8H304.276V90.16H339.076V99.64H304.276V136ZM379.823 136H348.863V129.76L358.943 127.48V58.96L348.863 56.56V50.32H379.823V56.56L369.743 58.96V127.48L379.823 129.76V136ZM464.287 136H451.687L405.847 64.84H405.367C405.447 66.28 405.527 67.88 405.607 69.64C405.767 71.4 405.887 73.32 405.967 75.4C406.047 77.4 406.127 79.48 406.207 81.64C406.287 83.8 406.327 85.96 406.327 88.12V136H396.367V50.32H408.847L454.567 121.24H455.047C454.967 120.28 454.887 118.96 454.807 117.28C454.727 115.52 454.647 113.6 454.567 111.52C454.487 109.36 454.407 107.16 454.327 104.92C454.247 102.68 454.207 100.6 454.207 98.68V50.32H464.287V136ZM511.658 136H480.698V129.76L490.778 127.48V58.96L480.698 56.56V50.32H511.658V56.56L501.578 58.96V127.48L511.658 129.76V136ZM555.323 136H544.523V59.8H517.763V50.32H581.963V59.8H555.323V136ZM617.202 92.44L639.522 50.32H651.162L622.602 102.76V136H611.802V103.24L583.242 50.32H595.002L617.202 92.44Z" fill="white"/>
<path d="M223.28 202.32C223.28 211.92 221.48 219.96 217.88 226.44C214.36 232.92 209.28 237.8 202.64 241.08C196 244.36 187.96 246 178.52 246H154.64V160.32H181.04C189.68 160.32 197.16 161.92 203.48 165.12C209.8 168.32 214.68 173.04 218.12 179.28C221.56 185.44 223.28 193.12 223.28 202.32ZM211.88 202.68C211.88 195.08 210.6 188.84 208.04 183.96C205.56 179.08 201.88 175.48 197 173.16C192.2 170.76 186.36 169.56 179.48 169.56H165.44V236.76H177.08C188.68 236.76 197.36 233.92 203.12 228.24C208.96 222.48 211.88 213.96 211.88 202.68ZM266.416 246H235.456V239.76L245.536 237.48V168.96L235.456 166.56V160.32H266.416V166.56L256.336 168.96V237.48L266.416 239.76V246ZM320.16 200.76H349.8V242.76C345.16 244.28 340.48 245.4 335.76 246.12C331.04 246.84 325.68 247.2 319.68 247.2C310.8 247.2 303.32 245.44 297.24 241.92C291.16 238.32 286.52 233.24 283.32 226.68C280.2 220.04 278.64 212.2 278.64 203.16C278.64 194.2 280.4 186.44 283.92 179.88C287.44 173.32 292.48 168.24 299.04 164.64C305.68 160.96 313.68 159.12 323.04 159.12C327.84 159.12 332.36 159.56 336.6 160.44C340.92 161.32 344.92 162.56 348.6 164.16L344.52 173.52C341.48 172.16 338.04 171 334.2 170.04C330.44 169.08 326.52 168.6 322.44 168.6C315.64 168.6 309.8 170 304.92 172.8C300.04 175.6 296.32 179.6 293.76 184.8C291.2 189.92 289.92 196.04 289.92 203.16C289.92 209.96 291 216 293.16 221.28C295.4 226.48 298.88 230.56 303.6 233.52C308.32 236.4 314.52 237.84 322.2 237.84C324.76 237.84 327 237.76 328.92 237.6C330.92 237.36 332.72 237.08 334.32 236.76C336 236.44 337.56 236.12 339 235.8V210.36H320.16V200.76ZM394.385 246H363.425V239.76L373.505 237.48V168.96L363.425 166.56V160.32H394.385V166.56L384.305 168.96V237.48L394.385 239.76V246ZM438.049 246H427.249V169.8H400.489V160.32H464.689V169.8H438.049V246ZM522.931 246L512.611 219.48H478.651L468.451 246H457.531L491.011 159.96H500.731L534.091 246H522.931ZM499.771 183.96C499.531 183.32 499.131 182.16 498.571 180.48C498.011 178.8 497.451 177.08 496.891 175.32C496.411 173.48 496.011 172.08 495.691 171.12C495.291 172.72 494.851 174.36 494.371 176.04C493.971 177.64 493.531 179.12 493.051 180.48C492.651 181.84 492.291 183 491.971 183.96L482.251 209.88H509.371L499.771 183.96ZM545.812 246V160.32H556.612V236.4H594.052V246H545.812Z" fill="white"/>
</svg>
