<svg width="25" height="25" viewBox="0 0 25 25" fill="none" xmlns="http://www.w3.org/2000/svg">
<path fill-rule="evenodd" clip-rule="evenodd" d="M8.875 2H17.125C20.9214 2 24 5.07862 24 8.875V17.125C24 20.9214 20.9214 24 17.125 24H8.875C5.07862 24 2 20.9214 2 17.125V8.875C2 5.07862 5.07862 2 8.875 2ZM17.125 21.9375C19.7787 21.9375 21.9375 19.7787 21.9375 17.125V8.875C21.9375 6.22125 19.7787 4.0625 17.125 4.0625H8.875C6.22125 4.0625 4.0625 6.22125 4.0625 8.875V17.125C4.0625 19.7787 6.22125 21.9375 8.875 21.9375H17.125Z" fill="white"/>
<path fill-rule="evenodd" clip-rule="evenodd" d="M7.5 13C7.5 9.96263 9.96263 7.5 13 7.5C16.0374 7.5 18.5 9.96263 18.5 13C18.5 16.0374 16.0374 18.5 13 18.5C9.96263 18.5 7.5 16.0374 7.5 13ZM9.5625 13C9.5625 14.8948 11.1052 16.4375 13 16.4375C14.8948 16.4375 16.4375 14.8948 16.4375 13C16.4375 11.1039 14.8948 9.5625 13 9.5625C11.1052 9.5625 9.5625 11.1039 9.5625 13Z" fill="white"/>
<circle cx="18.9124" cy="7.08737" r="0.732875" fill="white"/>
</svg>
