<svg width="25" height="25" viewBox="0 0 25 25" fill="none" xmlns="http://www.w3.org/2000/svg">
<path d="M24 6.11613C23.1819 6.475 22.3101 6.71288 21.4013 6.82838C22.3363 6.27013 23.0499 5.39287 23.3854 4.3355C22.5136 4.85525 21.5511 5.22238 20.5254 5.42725C19.6976 4.54588 18.5179 4 17.2309 4C14.7339 4 12.7236 6.02675 12.7236 8.51137C12.7236 8.86887 12.7539 9.21263 12.8281 9.53988C9.0785 9.357 5.76062 7.55987 3.53175 4.82225C3.14262 5.49738 2.91438 6.27012 2.91438 7.102C2.91438 8.664 3.71875 10.0486 4.91775 10.8502C4.19312 10.8365 3.48225 10.6261 2.88 10.2948C2.88 10.3085 2.88 10.3264 2.88 10.3443C2.88 12.536 4.44338 14.3565 6.4935 14.7759C6.12638 14.8763 5.72625 14.9244 5.311 14.9244C5.02225 14.9244 4.73075 14.9079 4.45712 14.8474C5.0415 16.6335 6.69975 17.9466 8.6715 17.9893C7.137 19.1896 5.18863 19.9129 3.07938 19.9129C2.7095 19.9129 2.35475 19.8964 2 19.851C3.99787 21.1394 6.36563 21.875 8.919 21.875C17.2185 21.875 21.756 15 21.756 9.04075C21.756 8.84138 21.7491 8.64887 21.7395 8.45775C22.6346 7.8225 23.3867 7.02913 24 6.11613Z" fill="white"/>
</svg>
