<svg width="133" height="48" viewBox="0 0 133 48" fill="none" xmlns="http://www.w3.org/2000/svg">
<path d="M14.635 6H0V41L14.635 6Z" fill="#9D9FA1"/>
<path d="M24.9321 6H39.548V41L24.9321 6Z" fill="#9D9FA1"/>
<path d="M19.7837 18.8999L29.0986 41.0001H22.9872L20.2032 33.9639H13.3862L19.7837 18.8999Z" fill="#9D9FA1"/>
<path d="M63.4236 28.2577L65.1493 33.2059C65.2065 33.3298 65.2923 33.3871 65.4448 33.3871H68.7627C68.9439 33.3871 68.9725 33.3012 68.9439 33.1201L62.0888 14.0803C62.0602 13.9278 62.0316 13.8992 61.879 13.8992H57.7603C57.6459 13.8992 57.5791 13.985 57.5791 14.1089C57.5219 15.11 57.4361 15.4151 57.3122 15.7107L51.2007 33.0915C51.1721 33.3012 51.2389 33.3871 51.4105 33.3871H54.3756C54.5568 33.3871 54.6426 33.3298 54.7093 33.1487L56.3397 28.2577H63.4236ZM57.2836 25.0256C58.1798 22.3179 59.362 18.8474 59.8387 16.8643H59.8673C60.4584 18.9428 61.8504 23.0615 62.4797 25.0256H57.2836Z" fill="#9D9FA1"/>
<path d="M77.7567 33.6828C79.5396 33.6828 81.4369 33.3587 83.3628 32.5292C83.5154 32.472 83.544 32.4052 83.544 32.2622C83.4867 31.7283 83.42 30.956 83.42 30.3649V12.4407C83.42 12.3262 83.42 12.269 83.277 12.269H80.0449C79.921 12.269 79.8638 12.3262 79.8638 12.4788V18.5521C79.3584 18.4949 79.0057 18.4663 78.5862 18.4663C73.371 18.4663 70.1675 21.9081 70.1675 26.208C70.1675 31.1944 73.4568 33.6828 77.7567 33.6828V33.6828ZM79.8638 30.3649C79.3298 30.5365 78.7387 30.6033 78.1381 30.6033C75.7736 30.6033 73.8381 29.2685 73.8381 26.0269C73.8381 23.1571 75.8308 21.46 78.4718 21.46C79.0057 21.46 79.4729 21.5172 79.8638 21.6698V30.3649Z" fill="#9D9FA1"/>
<path d="M93.8548 18.4663C89.4024 18.4663 86.647 21.8795 86.647 26.0937C86.647 29.8597 88.8398 33.6829 93.7881 33.6829C97.9736 33.6829 100.91 30.6033 100.91 25.9983C100.91 21.9368 98.4217 18.4663 93.8548 18.4663ZM93.6737 21.46C96.1907 21.46 97.2585 23.6243 97.2585 26.0937C97.2585 29.1446 95.6854 30.6605 93.8548 30.6605C91.5952 30.6605 90.2604 28.7632 90.2604 26.0269C90.2604 23.2143 91.681 21.46 93.6737 21.46V21.46Z" fill="#9D9FA1"/>
<path d="M104.252 12.269C104.128 12.269 104.042 12.3262 104.042 12.4788V32.7675C104.042 32.8534 104.128 33.0059 104.252 33.0345C105.672 33.4731 107.16 33.6828 108.695 33.6828C113.09 33.6828 117.361 30.956 117.361 25.4644C117.361 21.4886 114.634 18.4663 110.363 18.4663C109.381 18.4663 108.466 18.6188 107.665 18.8858L107.627 12.5074C107.627 12.2976 107.57 12.269 107.36 12.269H104.252ZM113.71 25.8267C113.71 29.1159 111.46 30.6605 109.028 30.6605C108.523 30.6605 108.075 30.6319 107.665 30.5079V21.8509C108.132 21.6698 108.695 21.5172 109.734 21.5172C112.079 21.5172 113.71 23.0045 113.71 25.8267Z" fill="#9D9FA1"/>
<path d="M129.423 26.8945C130.872 26.8945 132.064 26.8659 132.474 26.7706C132.627 26.742 132.684 26.6848 132.713 26.5608C132.798 26.2367 132.836 25.5597 132.836 24.7303C132.836 21.9082 131.139 18.4663 126.754 18.4663C122.273 18.4663 119.784 22.1179 119.784 26.2367C119.784 29.8883 121.71 33.6829 127.106 33.6829C129.128 33.6829 130.434 33.3587 131.559 32.8248C131.673 32.7676 131.73 32.6722 131.73 32.5006V30.0313C131.73 29.8883 131.645 29.8597 131.559 29.9169C130.434 30.3936 129.213 30.6319 127.879 30.6319C124.856 30.6319 123.483 28.9635 123.398 26.8945H129.423ZM123.398 24.3394C123.636 22.8902 124.551 21.317 126.601 21.317C128.861 21.317 129.452 23.2143 129.452 24.0724C129.452 24.101 129.452 24.225 129.452 24.3108C129.328 24.3394 128.947 24.3394 127.821 24.3394H123.398Z" fill="#9D9FA1"/>
</svg>
